<mxfile host="65bd71144e">
    <diagram id="P-QzmT6BK_0GDP3EbOA5" name="PÃ¡gina-1">
        <mxGraphModel dx="1588" dy="1466" grid="1" gridSize="10" guides="1" tooltips="1" connect="1" arrows="1" fold="1" page="1" pageScale="1" pageWidth="827" pageHeight="1169" background="#ffffff" math="0" shadow="0">
            <root>
                <mxCell id="0"/>
                <mxCell id="1" parent="0"/>
                <mxCell id="6" value="Usuario" style="swimlane;fontStyle=1;childLayout=stackLayout;horizontal=1;startSize=26;fillColor=none;horizontalStack=0;resizeParent=1;resizeParentMax=0;resizeLast=0;collapsible=1;marginBottom=0;shadow=0;strokeColor=#666666;fontColor=#000000;" parent="1" vertex="1">
                    <mxGeometry x="-468" y="-1086" width="170" height="442" as="geometry">
                        <mxRectangle x="-540" y="-1107" width="80" height="30" as="alternateBounds"/>
                    </mxGeometry>
                </mxCell>
                <mxCell id="7" value="_id: ObjectId" style="text;strokeColor=#666666;fillColor=none;align=left;verticalAlign=top;spacingLeft=4;spacingRight=4;overflow=hidden;rotatable=0;points=[[0,0.5],[1,0.5]];portConstraint=eastwest;shadow=0;fontColor=#000000;fontStyle=1" parent="6" vertex="1">
                    <mxGeometry y="26" width="170" height="26" as="geometry"/>
                </mxCell>
                <mxCell id="8" value="nome: String" style="text;strokeColor=#666666;fillColor=none;align=left;verticalAlign=top;spacingLeft=4;spacingRight=4;overflow=hidden;rotatable=0;points=[[0,0.5],[1,0.5]];portConstraint=eastwest;shadow=0;fontColor=#000000;fontStyle=1" parent="6" vertex="1">
                    <mxGeometry y="52" width="170" height="26" as="geometry"/>
                </mxCell>
                <mxCell id="9" value="cpf: String (unique)" style="text;strokeColor=#666666;fillColor=none;align=left;verticalAlign=top;spacingLeft=4;spacingRight=4;overflow=hidden;rotatable=0;points=[[0,0.5],[1,0.5]];portConstraint=eastwest;shadow=0;fontColor=#000000;fontStyle=1" parent="6" vertex="1">
                    <mxGeometry y="78" width="170" height="26" as="geometry"/>
                </mxCell>
                <mxCell id="10" value="data_nascimento: Date Time" style="text;strokeColor=#666666;fillColor=none;align=left;verticalAlign=top;spacingLeft=4;spacingRight=4;overflow=hidden;rotatable=0;points=[[0,0.5],[1,0.5]];portConstraint=eastwest;shadow=0;fontColor=#000000;fontStyle=1" parent="6" vertex="1">
                    <mxGeometry y="104" width="170" height="26" as="geometry"/>
                </mxCell>
                <mxCell id="15" value="municipio: String" style="text;strokeColor=#666666;fillColor=none;align=left;verticalAlign=top;spacingLeft=4;spacingRight=4;overflow=hidden;rotatable=0;points=[[0,0.5],[1,0.5]];portConstraint=eastwest;shadow=0;fontColor=#000000;fontStyle=1" parent="6" vertex="1">
                    <mxGeometry y="130" width="170" height="26" as="geometry"/>
                </mxCell>
                <mxCell id="16" value="uf: String" style="text;strokeColor=#666666;fillColor=none;align=left;verticalAlign=top;spacingLeft=4;spacingRight=4;overflow=hidden;rotatable=0;points=[[0,0.5],[1,0.5]];portConstraint=eastwest;shadow=0;fontColor=#000000;fontStyle=1" parent="6" vertex="1">
                    <mxGeometry y="156" width="170" height="26" as="geometry"/>
                </mxCell>
                <mxCell id="17" value="telefone: String" style="text;strokeColor=#666666;fillColor=none;align=left;verticalAlign=top;spacingLeft=4;spacingRight=4;overflow=hidden;rotatable=0;points=[[0,0.5],[1,0.5]];portConstraint=eastwest;shadow=0;fontColor=#000000;fontStyle=1" parent="6" vertex="1">
                    <mxGeometry y="182" width="170" height="26" as="geometry"/>
                </mxCell>
                <mxCell id="18" value="email: String (unique)" style="text;strokeColor=#666666;fillColor=none;align=left;verticalAlign=top;spacingLeft=4;spacingRight=4;overflow=hidden;rotatable=0;points=[[0,0.5],[1,0.5]];portConstraint=eastwest;shadow=0;fontColor=#000000;fontStyle=1" parent="6" vertex="1">
                    <mxGeometry y="208" width="170" height="26" as="geometry"/>
                </mxCell>
                <mxCell id="20" value="bio: String" style="text;strokeColor=#666666;fillColor=none;align=left;verticalAlign=top;spacingLeft=4;spacingRight=4;overflow=hidden;rotatable=0;points=[[0,0.5],[1,0.5]];portConstraint=eastwest;shadow=0;fontColor=#000000;fontStyle=1" parent="6" vertex="1">
                    <mxGeometry y="234" width="170" height="26" as="geometry"/>
                </mxCell>
                <mxCell id="19" value="habilidade: String" style="text;strokeColor=#666666;fillColor=none;align=left;verticalAlign=top;spacingLeft=4;spacingRight=4;overflow=hidden;rotatable=0;points=[[0,0.5],[1,0.5]];portConstraint=eastwest;shadow=0;fontColor=#000000;fontStyle=1" parent="6" vertex="1">
                    <mxGeometry y="260" width="170" height="26" as="geometry"/>
                </mxCell>
                <mxCell id="21" value="influencia: String" style="text;strokeColor=#666666;fillColor=none;align=left;verticalAlign=top;spacingLeft=4;spacingRight=4;overflow=hidden;rotatable=0;points=[[0,0.5],[1,0.5]];portConstraint=eastwest;shadow=0;fontColor=#000000;fontStyle=1" parent="6" vertex="1">
                    <mxGeometry y="286" width="170" height="26" as="geometry"/>
                </mxCell>
                <mxCell id="24" value="foto_user: String ?" style="text;strokeColor=#666666;fillColor=none;align=left;verticalAlign=top;spacingLeft=4;spacingRight=4;overflow=hidden;rotatable=0;points=[[0,0.5],[1,0.5]];portConstraint=eastwest;shadow=0;fontColor=#000000;fontStyle=1" parent="6" vertex="1">
                    <mxGeometry y="312" width="170" height="26" as="geometry"/>
                </mxCell>
                <mxCell id="43" value="instagram: String ?" style="text;strokeColor=#666666;fillColor=none;align=left;verticalAlign=top;spacingLeft=4;spacingRight=4;overflow=hidden;rotatable=0;points=[[0,0.5],[1,0.5]];portConstraint=eastwest;shadow=0;fontColor=#000000;fontStyle=1" parent="6" vertex="1">
                    <mxGeometry y="338" width="170" height="26" as="geometry"/>
                </mxCell>
                <mxCell id="44" value="youtube: String ?" style="text;strokeColor=#666666;fillColor=none;align=left;verticalAlign=top;spacingLeft=4;spacingRight=4;overflow=hidden;rotatable=0;points=[[0,0.5],[1,0.5]];portConstraint=eastwest;shadow=0;fontColor=#000000;fontStyle=1" parent="6" vertex="1">
                    <mxGeometry y="364" width="170" height="26" as="geometry"/>
                </mxCell>
                <mxCell id="45" value="facebook: String ?" style="text;strokeColor=#666666;fillColor=none;align=left;verticalAlign=top;spacingLeft=4;spacingRight=4;overflow=hidden;rotatable=0;points=[[0,0.5],[1,0.5]];portConstraint=eastwest;shadow=0;fontColor=#000000;fontStyle=1" parent="6" vertex="1">
                    <mxGeometry y="390" width="170" height="26" as="geometry"/>
                </mxCell>
                <mxCell id="83" value="senha: String" style="text;strokeColor=#666666;fillColor=none;align=left;verticalAlign=top;spacingLeft=4;spacingRight=4;overflow=hidden;rotatable=0;points=[[0,0.5],[1,0.5]];portConstraint=eastwest;shadow=0;fontColor=#000000;fontStyle=1" parent="6" vertex="1">
                    <mxGeometry y="416" width="170" height="26" as="geometry"/>
                </mxCell>
                <mxCell id="25" value="Projeto" style="swimlane;fontStyle=1;childLayout=stackLayout;horizontal=1;startSize=26;fillColor=none;horizontalStack=0;resizeParent=1;resizeParentMax=0;resizeLast=0;collapsible=1;marginBottom=0;shadow=0;strokeColor=#666666;fontColor=#000000;" parent="1" vertex="1">
                    <mxGeometry x="-215" y="-1086" width="170" height="312" as="geometry"/>
                </mxCell>
                <mxCell id="67" value="_id: ObjectId" style="text;strokeColor=#666666;fillColor=none;align=left;verticalAlign=top;spacingLeft=4;spacingRight=4;overflow=hidden;rotatable=0;points=[[0,0.5],[1,0.5]];portConstraint=eastwest;shadow=0;fontColor=#000000;fontStyle=1" parent="25" vertex="1">
                    <mxGeometry y="26" width="170" height="26" as="geometry"/>
                </mxCell>
                <mxCell id="26" value="usuario_id: Usuario" style="text;strokeColor=#666666;fillColor=none;align=left;verticalAlign=top;spacingLeft=4;spacingRight=4;overflow=hidden;rotatable=0;points=[[0,0.5],[1,0.5]];portConstraint=eastwest;shadow=0;fontColor=#000000;fontStyle=1" parent="25" vertex="1">
                    <mxGeometry y="52" width="170" height="26" as="geometry"/>
                </mxCell>
                <mxCell id="27" value="titulo: String" style="text;strokeColor=#666666;fillColor=none;align=left;verticalAlign=top;spacingLeft=4;spacingRight=4;overflow=hidden;rotatable=0;points=[[0,0.5],[1,0.5]];portConstraint=eastwest;shadow=0;fontColor=#000000;fontStyle=1" parent="25" vertex="1">
                    <mxGeometry y="78" width="170" height="26" as="geometry"/>
                </mxCell>
                <mxCell id="28" value="descricao: String" style="text;strokeColor=#666666;fillColor=none;align=left;verticalAlign=top;spacingLeft=4;spacingRight=4;overflow=hidden;rotatable=0;points=[[0,0.5],[1,0.5]];portConstraint=eastwest;shadow=0;fontColor=#000000;fontStyle=1" parent="25" vertex="1">
                    <mxGeometry y="104" width="170" height="26" as="geometry"/>
                </mxCell>
                <mxCell id="68" value="data: Date" style="text;strokeColor=#666666;fillColor=none;align=left;verticalAlign=top;spacingLeft=4;spacingRight=4;overflow=hidden;rotatable=0;points=[[0,0.5],[1,0.5]];portConstraint=eastwest;shadow=0;fontColor=#000000;fontStyle=1" parent="25" vertex="1">
                    <mxGeometry y="130" width="170" height="26" as="geometry"/>
                </mxCell>
                <mxCell id="29" value="objetivo: String" style="text;strokeColor=#666666;fillColor=none;align=left;verticalAlign=top;spacingLeft=4;spacingRight=4;overflow=hidden;rotatable=0;points=[[0,0.5],[1,0.5]];portConstraint=eastwest;shadow=0;fontColor=#000000;fontStyle=1" parent="25" vertex="1">
                    <mxGeometry y="156" width="170" height="26" as="geometry"/>
                </mxCell>
                <mxCell id="30" value="municipio: String" style="text;strokeColor=#666666;fillColor=none;align=left;verticalAlign=top;spacingLeft=4;spacingRight=4;overflow=hidden;rotatable=0;points=[[0,0.5],[1,0.5]];portConstraint=eastwest;shadow=0;fontColor=#000000;fontStyle=1" parent="25" vertex="1">
                    <mxGeometry y="182" width="170" height="26" as="geometry"/>
                </mxCell>
                <mxCell id="35" value="uf: String" style="text;strokeColor=#666666;fillColor=none;align=left;verticalAlign=top;spacingLeft=4;spacingRight=4;overflow=hidden;rotatable=0;points=[[0,0.5],[1,0.5]];portConstraint=eastwest;shadow=0;fontColor=#000000;fontStyle=1" parent="25" vertex="1">
                    <mxGeometry y="208" width="170" height="26" as="geometry"/>
                </mxCell>
                <mxCell id="31" value="estilo: String" style="text;strokeColor=#666666;fillColor=none;align=left;verticalAlign=top;spacingLeft=4;spacingRight=4;overflow=hidden;rotatable=0;points=[[0,0.5],[1,0.5]];portConstraint=eastwest;shadow=0;fontColor=#000000;fontStyle=1" parent="25" vertex="1">
                    <mxGeometry y="234" width="170" height="26" as="geometry"/>
                </mxCell>
                <mxCell id="32" value="procura: String" style="text;strokeColor=#666666;fillColor=none;align=left;verticalAlign=top;spacingLeft=4;spacingRight=4;overflow=hidden;rotatable=0;points=[[0,0.5],[1,0.5]];portConstraint=eastwest;shadow=0;fontColor=#000000;fontStyle=1" parent="25" vertex="1">
                    <mxGeometry y="260" width="170" height="26" as="geometry"/>
                </mxCell>
                <mxCell id="66" value="link: String ?" style="text;strokeColor=#666666;fillColor=none;align=left;verticalAlign=top;spacingLeft=4;spacingRight=4;overflow=hidden;rotatable=0;points=[[0,0.5],[1,0.5]];portConstraint=eastwest;shadow=0;fontColor=#000000;fontStyle=1" parent="25" vertex="1">
                    <mxGeometry y="286" width="170" height="26" as="geometry"/>
                </mxCell>
                <mxCell id="46" value="Post" style="swimlane;fontStyle=1;childLayout=stackLayout;horizontal=1;startSize=26;fillColor=none;horizontalStack=0;resizeParent=1;resizeParentMax=0;resizeLast=0;collapsible=1;marginBottom=0;shadow=0;strokeColor=#666666;fontColor=#000000;" parent="1" vertex="1">
                    <mxGeometry x="-720" y="-779" width="170" height="156" as="geometry"/>
                </mxCell>
                <mxCell id="47" value="_id: ObjectId" style="text;strokeColor=#666666;fillColor=none;align=left;verticalAlign=top;spacingLeft=4;spacingRight=4;overflow=hidden;rotatable=0;points=[[0,0.5],[1,0.5]];portConstraint=eastwest;shadow=0;fontColor=#000000;fontStyle=1" parent="46" vertex="1">
                    <mxGeometry y="26" width="170" height="26" as="geometry"/>
                </mxCell>
                <mxCell id="48" value="usuario_id: Usuario" style="text;strokeColor=#666666;fillColor=none;align=left;verticalAlign=top;spacingLeft=4;spacingRight=4;overflow=hidden;rotatable=0;points=[[0,0.5],[1,0.5]];portConstraint=eastwest;shadow=0;fontColor=#000000;fontStyle=1" parent="46" vertex="1">
                    <mxGeometry y="52" width="170" height="26" as="geometry"/>
                </mxCell>
                <mxCell id="61" value="data: Date" style="text;strokeColor=#666666;fillColor=none;align=left;verticalAlign=top;spacingLeft=4;spacingRight=4;overflow=hidden;rotatable=0;points=[[0,0.5],[1,0.5]];portConstraint=eastwest;shadow=0;fontColor=#000000;fontStyle=1" parent="46" vertex="1">
                    <mxGeometry y="78" width="170" height="26" as="geometry"/>
                </mxCell>
                <mxCell id="49" value="descricao: String" style="text;strokeColor=#666666;fillColor=none;align=left;verticalAlign=top;spacingLeft=4;spacingRight=4;overflow=hidden;rotatable=0;points=[[0,0.5],[1,0.5]];portConstraint=eastwest;shadow=0;fontColor=#000000;fontStyle=1" parent="46" vertex="1">
                    <mxGeometry y="104" width="170" height="26" as="geometry"/>
                </mxCell>
                <mxCell id="56" value="midia: String ?" style="text;strokeColor=#666666;fillColor=none;align=left;verticalAlign=top;spacingLeft=4;spacingRight=4;overflow=hidden;rotatable=0;points=[[0,0.5],[1,0.5]];portConstraint=eastwest;shadow=0;fontColor=#000000;fontStyle=1" parent="46" vertex="1">
                    <mxGeometry y="130" width="170" height="26" as="geometry"/>
                </mxCell>
                <mxCell id="69" value="Venda" style="swimlane;fontStyle=1;childLayout=stackLayout;horizontal=1;startSize=26;fillColor=none;horizontalStack=0;resizeParent=1;resizeParentMax=0;resizeLast=0;collapsible=1;marginBottom=0;shadow=0;strokeColor=#666666;fontColor=#000000;" parent="1" vertex="1">
                    <mxGeometry x="-718" y="-1086" width="170" height="260" as="geometry"/>
                </mxCell>
                <mxCell id="70" value="_id: ObjectId" style="text;strokeColor=#666666;fillColor=none;align=left;verticalAlign=top;spacingLeft=4;spacingRight=4;overflow=hidden;rotatable=0;points=[[0,0.5],[1,0.5]];portConstraint=eastwest;shadow=0;fontColor=#000000;fontStyle=1" parent="69" vertex="1">
                    <mxGeometry y="26" width="170" height="26" as="geometry"/>
                </mxCell>
                <mxCell id="71" value="usuario_id: Usuario" style="text;strokeColor=#666666;fillColor=none;align=left;verticalAlign=top;spacingLeft=4;spacingRight=4;overflow=hidden;rotatable=0;points=[[0,0.5],[1,0.5]];portConstraint=eastwest;shadow=0;fontColor=#000000;fontStyle=1" parent="69" vertex="1">
                    <mxGeometry y="52" width="170" height="26" as="geometry"/>
                </mxCell>
                <mxCell id="80" value="titulo: String" style="text;strokeColor=#666666;fillColor=none;align=left;verticalAlign=top;spacingLeft=4;spacingRight=4;overflow=hidden;rotatable=0;points=[[0,0.5],[1,0.5]];portConstraint=eastwest;shadow=0;fontColor=#000000;fontStyle=1" parent="69" vertex="1">
                    <mxGeometry y="78" width="170" height="26" as="geometry"/>
                </mxCell>
                <mxCell id="72" value="data: Date" style="text;strokeColor=#666666;fillColor=none;align=left;verticalAlign=top;spacingLeft=4;spacingRight=4;overflow=hidden;rotatable=0;points=[[0,0.5],[1,0.5]];portConstraint=eastwest;shadow=0;fontColor=#000000;fontStyle=1" parent="69" vertex="1">
                    <mxGeometry y="104" width="170" height="26" as="geometry"/>
                </mxCell>
                <mxCell id="77" value="descricao: String" style="text;strokeColor=#666666;fillColor=none;align=left;verticalAlign=top;spacingLeft=4;spacingRight=4;overflow=hidden;rotatable=0;points=[[0,0.5],[1,0.5]];portConstraint=eastwest;shadow=0;fontColor=#000000;fontStyle=1" parent="69" vertex="1">
                    <mxGeometry y="130" width="170" height="26" as="geometry"/>
                </mxCell>
                <mxCell id="81" value="municipio: String" style="text;strokeColor=#666666;fillColor=none;align=left;verticalAlign=top;spacingLeft=4;spacingRight=4;overflow=hidden;rotatable=0;points=[[0,0.5],[1,0.5]];portConstraint=eastwest;shadow=0;fontColor=#000000;fontStyle=1" parent="69" vertex="1">
                    <mxGeometry y="156" width="170" height="26" as="geometry"/>
                </mxCell>
                <mxCell id="82" value="uf: String" style="text;strokeColor=#666666;fillColor=none;align=left;verticalAlign=top;spacingLeft=4;spacingRight=4;overflow=hidden;rotatable=0;points=[[0,0.5],[1,0.5]];portConstraint=eastwest;shadow=0;fontColor=#000000;fontStyle=1" parent="69" vertex="1">
                    <mxGeometry y="182" width="170" height="26" as="geometry"/>
                </mxCell>
                <mxCell id="73" value="preco: Number" style="text;strokeColor=#666666;fillColor=none;align=left;verticalAlign=top;spacingLeft=4;spacingRight=4;overflow=hidden;rotatable=0;points=[[0,0.5],[1,0.5]];portConstraint=eastwest;shadow=0;fontColor=#000000;fontStyle=1" parent="69" vertex="1">
                    <mxGeometry y="208" width="170" height="26" as="geometry"/>
                </mxCell>
                <mxCell id="74" value="midia: String ?" style="text;strokeColor=#666666;fillColor=none;align=left;verticalAlign=top;spacingLeft=4;spacingRight=4;overflow=hidden;rotatable=0;points=[[0,0.5],[1,0.5]];portConstraint=eastwest;shadow=0;fontColor=#000000;fontStyle=1" parent="69" vertex="1">
                    <mxGeometry y="234" width="170" height="26" as="geometry"/>
                </mxCell>
                <mxCell id="85" value="&lt;font style=&quot;background-color: rgb(252, 252, 252);&quot; color=&quot;#e80800&quot;&gt;1&lt;/font&gt;" style="edgeLabel;html=1;align=center;verticalAlign=middle;resizable=0;points=[];strokeColor=#1D1C1D;shadow=0;fontStyle=1" parent="1" vertex="1" connectable="0">
                    <mxGeometry x="-477.9848942274873" y="-1052.330415770422" as="geometry"/>
                </mxCell>
                <mxCell id="86" value="&lt;font style=&quot;background-color: rgb(252, 252, 252);&quot; color=&quot;#e80800&quot;&gt;0.*&lt;/font&gt;" style="edgeLabel;html=1;align=center;verticalAlign=middle;resizable=0;points=[];strokeColor=#1D1C1D;shadow=0;fontStyle=1" parent="1" vertex="1" connectable="0">
                    <mxGeometry x="-456.9848942274873" y="-1066.330415770422" as="geometry">
                        <mxPoint x="-59" y="-12" as="offset"/>
                    </mxGeometry>
                </mxCell>
                <mxCell id="87" value="&lt;font style=&quot;background-color: rgb(252, 252, 252);&quot; color=&quot;#e80800&quot;&gt;0.*&lt;/font&gt;" style="edgeLabel;html=1;align=center;verticalAlign=middle;resizable=0;points=[];strokeColor=#1D1C1D;shadow=0;fontStyle=1" parent="1" vertex="1" connectable="0">
                    <mxGeometry x="-450.9848942274873" y="-1012.0004157704219" as="geometry">
                        <mxPoint x="-64" y="245" as="offset"/>
                    </mxGeometry>
                </mxCell>
                <mxCell id="88" value="&lt;font style=&quot;background-color: rgb(252, 252, 252);&quot; color=&quot;#e80800&quot;&gt;0.*&lt;/font&gt;" style="edgeLabel;html=1;align=center;verticalAlign=middle;resizable=0;points=[];strokeColor=#1D1C1D;" parent="1" vertex="1" connectable="0">
                    <mxGeometry x="-184.0048942274873" y="-1322.000415770422" as="geometry">
                        <mxPoint x="-64" y="245" as="offset"/>
                    </mxGeometry>
                </mxCell>
                <mxCell id="89" value="&lt;font style=&quot;background-color: rgb(252, 252, 252);&quot; color=&quot;#e80800&quot;&gt;1&lt;/font&gt;" style="edgeLabel;html=1;align=center;verticalAlign=middle;resizable=0;points=[];strokeColor=#1D1C1D;shadow=0;fontStyle=1" parent="1" vertex="1" connectable="0">
                    <mxGeometry x="-461.9848942274873" y="-1066.3304157704217" as="geometry">
                        <mxPoint x="171" y="-12" as="offset"/>
                    </mxGeometry>
                </mxCell>
                <mxCell id="93" value="" style="endArrow=diamondThin;endFill=1;endSize=24;html=1;entryX=1.004;entryY=0.055;entryDx=0;entryDy=0;entryPerimeter=0;exitX=-0.007;exitY=0.034;exitDx=0;exitDy=0;exitPerimeter=0;fillColor=#000000;strokeColor=#0A0300;" parent="1" source="6" target="69" edge="1">
                    <mxGeometry width="160" relative="1" as="geometry">
                        <mxPoint x="-500" y="-1070" as="sourcePoint"/>
                        <mxPoint x="-340" y="-1070" as="targetPoint"/>
                    </mxGeometry>
                </mxCell>
                <mxCell id="94" value="&lt;font style=&quot;background-color: rgb(252, 252, 252);&quot; color=&quot;#e80800&quot;&gt;1&lt;/font&gt;" style="edgeLabel;html=1;align=center;verticalAlign=middle;resizable=0;points=[];strokeColor=#1D1C1D;shadow=0;fontStyle=1" parent="1" vertex="1" connectable="0">
                    <mxGeometry x="-461.9848942274873" y="-1045.330415770422" as="geometry">
                        <mxPoint x="-15" y="-33" as="offset"/>
                    </mxGeometry>
                </mxCell>
                <mxCell id="95" value="" style="endArrow=diamondThin;endFill=1;endSize=24;html=1;entryX=1;entryY=0.122;entryDx=0;entryDy=0;entryPerimeter=0;exitX=-0.007;exitY=0.034;exitDx=0;exitDy=0;exitPerimeter=0;fillColor=#000000;strokeColor=#0A0300;" parent="1" target="46" edge="1">
                    <mxGeometry width="160" relative="1" as="geometry">
                        <mxPoint x="-467.99999999999994" y="-1044.602" as="sourcePoint"/>
                        <mxPoint x="-546.1299999999999" y="-1045.3300000000002" as="targetPoint"/>
                        <Array as="points">
                            <mxPoint x="-490" y="-1045"/>
                            <mxPoint x="-490" y="-760"/>
                        </Array>
                    </mxGeometry>
                </mxCell>
                <mxCell id="97" value="" style="endArrow=diamondThin;endFill=1;endSize=24;html=1;exitX=0.999;exitY=0.034;exitDx=0;exitDy=0;exitPerimeter=0;fillColor=#000000;strokeColor=#0A0300;entryX=-0.029;entryY=0.051;entryDx=0;entryDy=0;entryPerimeter=0;" parent="1" source="6" edge="1">
                    <mxGeometry width="160" relative="1" as="geometry">
                        <mxPoint x="-291.29999999999995" y="-1070.972" as="sourcePoint"/>
                        <mxPoint x="-214.93000000000006" y="-1070.088" as="targetPoint"/>
                    </mxGeometry>
                </mxCell>
            </root>
        </mxGraphModel>
    </diagram>
</mxfile>